<?xml version="1.0" encoding="UTF-8"?>
<svg xmlns="http://www.w3.org/2000/svg" xmlns:xlink="http://www.w3.org/1999/xlink" viewBox="0 0 480 480" width="480px" height="480px">
<g id="surface70148048">
<path style=" stroke:none;fill-rule:nonzero;fill:rgb(100%,75.686276%,2.745098%);fill-opacity:1;" d="M 436.109375 200.828125 L 420 200.828125 L 420 200 L 240 200 L 240 280 L 353.03125 280 C 336.539062 326.570312 292.230469 360 240 360 C 173.730469 360 120 306.269531 120 240 C 120 173.730469 173.730469 120 240 120 C 270.589844 120 298.421875 131.539062 319.609375 150.390625 L 376.179688 93.820312 C 340.460938 60.53125 292.679688 40 240 40 C 129.550781 40 40 129.550781 40 240 C 40 350.449219 129.550781 440 240 440 C 350.449219 440 440 350.449219 440 240 C 440 226.589844 438.621094 213.5 436.109375 200.828125 Z M 436.109375 200.828125 "/>
<path style=" stroke:none;fill-rule:nonzero;fill:rgb(100%,23.921569%,0%);fill-opacity:1;" d="M 63.058594 146.910156 L 128.769531 195.101562 C 146.550781 151.078125 189.609375 120 240 120 C 270.589844 120 298.421875 131.539062 319.609375 150.390625 L 376.179688 93.820312 C 340.460938 60.53125 292.679688 40 240 40 C 163.179688 40 96.558594 83.371094 63.058594 146.910156 Z M 63.058594 146.910156 "/>
<path style=" stroke:none;fill-rule:nonzero;fill:rgb(29.803923%,68.627453%,31.37255%);fill-opacity:1;" d="M 240 440 C 291.660156 440 338.601562 420.230469 374.089844 388.078125 L 312.191406 335.699219 C 292.109375 350.910156 267.148438 360 240 360 C 187.980469 360 143.808594 326.828125 127.171875 280.539062 L 61.949219 330.789062 C 95.050781 395.558594 162.269531 440 240 440 Z M 240 440 "/>
<path style=" stroke:none;fill-rule:nonzero;fill:rgb(9.803922%,46.27451%,82.352942%);fill-opacity:1;" d="M 436.109375 200.828125 L 420 200.828125 L 420 200 L 240 200 L 240 280 L 353.03125 280 C 345.109375 302.371094 330.71875 321.660156 312.160156 335.710938 C 312.171875 335.699219 312.179688 335.699219 312.191406 335.691406 L 374.089844 388.070312 C 369.710938 392.050781 440 340 440 240 C 440 226.589844 438.621094 213.5 436.109375 200.828125 Z M 436.109375 200.828125 "/>
</g>
</svg>
